<?xml version="1.0" encoding="UTF-8" standalone="no"?>
<!-- Generator: Adobe Illustrator 16.0.4, SVG Export Plug-In . SVG Version: 6.00 Build 0)  -->

<svg
   xmlns:dc="http://purl.org/dc/elements/1.1/"
   xmlns:cc="http://creativecommons.org/ns#"
   xmlns:rdf="http://www.w3.org/1999/02/22-rdf-syntax-ns#"
   xmlns:svg="http://www.w3.org/2000/svg"
   xmlns="http://www.w3.org/2000/svg"
   xmlns:sodipodi="http://sodipodi.sourceforge.net/DTD/sodipodi-0.dtd"
   xmlns:inkscape="http://www.inkscape.org/namespaces/inkscape"
   version="1.1"
   id="Capa_1"
   x="0px"
   y="0px"
   width="32"
   height="32"
   viewBox="0 0 32 32"
   enable-background="new 0 0 16 16"
   xml:space="preserve"
   inkscape:version="0.48.4 r9939"
   sodipodi:docname="map5.svg"><metadata
   id="metadata9"><rdf:RDF><cc:Work
       rdf:about=""><dc:format>image/svg+xml</dc:format><dc:type
         rdf:resource="http://purl.org/dc/dcmitype/StillImage" /><dc:title></dc:title></cc:Work></rdf:RDF></metadata><defs
   id="defs7"><filter
     inkscape:collect="always"
     id="filter3876"
     x="-0.21996185"
     width="1.4399236"
     y="-0.15377779"
     height="1.3075556"
     color-interpolation-filters="sRGB"><feGaussianBlur
       inkscape:collect="always"
       stdDeviation="0.324375"
       id="feGaussianBlur3878" /></filter><filter
     inkscape:collect="always"
     id="filter3880"
     color-interpolation-filters="sRGB"><feGaussianBlur
       inkscape:collect="always"
       stdDeviation="0.324375"
       id="feGaussianBlur3882" /></filter><filter
     inkscape:collect="always"
     id="filter3884"
     color-interpolation-filters="sRGB"><feGaussianBlur
       inkscape:collect="always"
       stdDeviation="0.324375"
       id="feGaussianBlur3886" /></filter></defs><sodipodi:namedview
   pagecolor="#ffffff"
   bordercolor="#666666"
   borderopacity="1"
   objecttolerance="10"
   gridtolerance="10"
   guidetolerance="10"
   inkscape:pageopacity="0"
   inkscape:pageshadow="2"
   inkscape:window-width="1920"
   inkscape:window-height="1137"
   id="namedview5"
   showgrid="false"
   fit-margin-top="0"
   fit-margin-left="0"
   fit-margin-right="0"
   fit-margin-bottom="0"
   inkscape:zoom="3.6875"
   inkscape:cx="-29.668141"
   inkscape:cy="8.1186455"
   inkscape:window-x="-8"
   inkscape:window-y="-8"
   inkscape:window-maximized="1"
   inkscape:current-layer="Capa_1" />
<path
   inkscape:connector-curvature="0"
   style="fill:#000000;filter:url(#filter3884)"
   d="m 11.591,0.77850001 c -5.965167,0 -10.81249999,4.84627449 -10.81249999,10.81249999 0,5.965166 4.84733299,10.8125 10.81249999,10.8125 5.966226,0 10.8125,-4.847334 10.8125,-10.8125 C 22.4045,5.6247745 17.557226,0.77850001 11.591,0.77850001 z"
   id="path3019-9"
   transform="scale(1.3803813,1.3803813)" /><path
   style="fill:#668000"
   d="m 15.957954,0.60494585 c -8.2342057,0 -14.9253736,6.68970695 -14.9253736,14.92537415 0,8.234203 6.6911679,14.925373 14.9253736,14.925373 8.235666,0 14.925373,-6.69117 14.925373,-14.925373 C 30.884727,7.2946528 24.19362,0.60494585 15.957954,0.60494585 z"
   id="path3019"
   inkscape:connector-curvature="0" /><path
   inkscape:connector-curvature="0"
   style="fill:#000000;filter:url(#filter3876)"
   d="m 13.74725,2.74725 c 0.977976,0 1.749688,0.8035892 1.75,1.7812495 0,0.0736 0.0088,0.147359 0,0.21875 -0.147517,1.383572 -1.625,2.96875 -1.625,2.96875 -0.02654,0.02937 -0.03786,0.04923 -0.0625,0.0625 l -0.0625,0.03125 -0.0625,-0.03125 c -0.02464,-0.01327 -0.03597,-0.03281 -0.0625,-0.0625 0,0 -1.504941,-1.58581 -1.65625,-2.96875 -0.0092,-0.07234 0,-0.143887 0,-0.21875 0,-0.9779756 0.803274,-1.7812495 1.78125,-1.7812495 z"
   id="path3017-4"
   transform="scale(1.3803813,1.3803813)" /><path
   style="fill:#88aa00"
   d="m 18.934401,3.3225716 c 1.34998,0 2.415236,1.1092595 2.415667,2.4588042 0,0.1015975 0.01215,0.2034116 0,0.3019584 -0.20363,1.9098564 -2.24312,4.0980068 -2.24312,4.0980068 -0.03664,0.04055 -0.05226,0.06796 -0.08627,0.08627 l -0.08627,0.04314 -0.08627,-0.04314 c -0.03401,-0.01831 -0.04965,-0.04529 -0.08627,-0.08627 0,0 -2.077392,-2.1890229 -2.286256,-4.0980068 -0.0127,-0.099853 0,-0.1986189 0,-0.3019584 0,-1.34998 1.108824,-2.4588042 2.458804,-2.4588042 z"
   id="path3017"
   inkscape:connector-curvature="0" /><path
   inkscape:connector-curvature="0"
   style="fill:#000000;filter:url(#filter3880)"
   d="m 12.4035,8.3722493 2.65625,0 0,7.4375007 c 0,3.598 -3.34375,3.375 -3.34375,3.375 l -4.6875,0 0,-2.625 c 0,0 2.34725,-0.0165 4.03125,-0.0625 1.685,-0.047 1.34375,-1.40625 1.34375,-1.40625 l 0,-6.7187507 z"
   id="path3018-8"
   transform="scale(1.3803813,1.3803813)" /><path
   style="fill:#88aa00"
   d="m 17.079513,11.087216 3.666638,0 0,10.266587 c 0,4.966612 -4.61565,4.658787 -4.61565,4.658787 l -6.4705374,0 0,-3.623501 c 0,0 3.2401004,-0.02278 5.5646624,-0.08627 2.325942,-0.06488 1.854887,-1.941162 1.854887,-1.941162 l 0,-9.274438 z"
   id="path3018"
   inkscape:connector-curvature="0" />
<text
   xml:space="preserve"
   style="font-size:13px;font-style:normal;font-variant:normal;font-weight:normal;font-stretch:normal;line-height:125%;letter-spacing:0px;word-spacing:0px;fill:#000000;fill-opacity:1;stroke:none;font-family:Gulim;-inkscape-font-specification:Gulim"
   x="-20.288404"
   y="11.582414"
   id="text2986"
   sodipodi:linespacing="125%"><tspan
     sodipodi:role="line"
     id="tspan2988"
     x="-20.288404"
     y="11.582414" /></text>
<path
   style="fill:#ffffff"
   d="m 18.934401,4.2284468 c -0.866848,0 -1.596066,0.6860811 -1.596066,1.552929 0,0.8668479 0.729218,1.552929 1.596066,1.552929 0.866847,0 1.552929,-0.6860811 1.552929,-1.552929 0,-0.8668479 -0.686082,-1.552929 -1.552929,-1.552929 z"
   id="path3015"
   inkscape:connector-curvature="0" /></svg>